# xmcd CD database file
#
# Track frame offsets:
#	150
#	13292
#	30347
#
# Disc length: 639 seconds
#
# Revision: 3
# Processed by: cddbd v1.5PL3 Copyright (c) Steve Scherf et al.
# Submitted via: CDex 1.51
#
DISCID=19027d03
DTITLE=BAZRA - ジャンプ／白く塗れ
DYEAR=1900
DGENRE=Rock
TTITLE0=ジャンプ
TTITLE1=白く塗れ
TTITLE2=肉体
EXTD=
EXTT0=
EXTT1=
EXTT2=
PLAYORDER=
